<?xml version="1.0" standalone="no"?>
<!DOCTYPE svg PUBLIC "-//W3C//DTD SVG 20010904//EN"
 "http://www.w3.org/TR/2001/REC-SVG-20010904/DTD/svg10.dtd">
<svg version="1.0" xmlns="http://www.w3.org/2000/svg"
 width="311.000000pt" height="345.000000pt" viewBox="0 0 311.000000 345.000000"
 preserveAspectRatio="xMidYMid meet">

<g transform="translate(0.000000,345.000000) scale(0.100000,-0.100000)"
fill="#000000" stroke="none">
<path d="M310 3269 c-91 -55 -172 -104 -180 -109 -9 -6 122 -10 350 -10 l365
0 -183 110 c-101 61 -184 110 -185 110 -1 -1 -76 -46 -167 -101z"/>
<path d="M2499 3260 l-184 -110 364 0 c200 0 362 2 360 4 -5 5 -317 194 -339
206 -13 7 -63 -18 -201 -100z"/>
<path d="M1495 3140 c-107 -23 -191 -69 -263 -143 l-43 -44 42 -36 42 -36 49
44 c27 24 75 57 106 72 50 25 68 28 152 28 84 0 102 -3 152 -28 31 -15 79 -48
106 -72 l49 -44 42 36 42 36 -43 44 c-56 57 -120 98 -194 123 -68 24 -181 33
-239 20z"/>
<path d="M130 3000 l0 -30 99 0 c132 0 131 1 131 -144 0 -93 -3 -116 -17 -127
-10 -9 -50 -15 -115 -17 l-98 -4 0 -54 0 -54 145 0 145 0 0 125 c0 169 -4 165
175 165 179 0 175 4 175 -165 l0 -125 30 0 30 0 0 230 0 230 -350 0 -350 0 0
-30z"/>
<path d="M2338 3013 c-2 -9 -2 -112 0 -230 l3 -213 24 0 25 0 0 123 c0 170 -3
167 173 167 183 0 177 5 177 -161 l0 -129 145 0 145 0 0 54 0 54 -101 4 c-129
4 -129 4 -129 149 0 139 0 139 131 139 l99 0 0 30 0 30 -344 0 c-312 0 -345
-2 -348 -17z"/>
<path d="M1474 2956 c-45 -14 -118 -61 -149 -96 l-20 -22 43 -38 44 -37 26 24
c91 85 209 91 307 16 l45 -34 29 20 c56 40 58 48 20 87 -56 57 -129 87 -223
91 -49 2 -97 -2 -122 -11z"/>
<path d="M130 2830 l0 -30 60 0 60 0 0 30 0 30 -60 0 -60 0 0 -30z"/>
<path d="M2910 2830 l0 -30 60 0 60 0 0 30 0 30 -60 0 -60 0 0 -30z"/>
<path d="M1495 2776 c-79 -36 -83 -47 -34 -90 48 -41 52 -42 69 -21 16 20 79
19 101 -1 17 -15 20 -15 46 4 15 11 36 29 46 40 18 20 17 21 -16 46 -67 51
-135 58 -212 22z"/>
<path d="M540 2655 l0 -85 55 0 55 0 0 85 0 85 -55 0 -55 0 0 -85z"/>
<path d="M2510 2655 l0 -85 55 0 55 0 0 85 0 85 -55 0 -55 0 0 -85z"/>
<path d="M300 2185 l0 -326 25 -24 24 -25 266 0 265 0 0 60 0 60 -230 0 -230
0 0 290 0 290 -60 0 -60 0 0 -325z"/>
<path d="M2740 2220 l0 -290 -230 0 -230 0 0 -60 0 -60 265 0 266 0 24 25 25
24 0 326 0 325 -60 0 -60 0 0 -290z"/>
<path d="M1290 1755 l0 -635 60 0 60 0 0 159 c0 200 -8 191 170 191 178 0 170
9 170 -191 l0 -159 60 0 60 0 0 635 0 635 -290 0 -290 0 0 -635z m217 563 c18
-15 16 -58 -4 -80 -22 -24 -109 -25 -135 -1 -33 29 -17 85 27 96 28 8 96 -2
112 -15z m288 2 c20 -17 19 -59 -2 -82 -22 -24 -109 -25 -135 -1 -33 29 -17
85 27 96 30 8 94 0 110 -13z m-293 -177 c10 -9 18 -26 18 -39 0 -38 -26 -54
-85 -54 -58 0 -85 16 -85 52 0 12 7 30 17 40 22 24 109 25 135 1z m290 0 c10
-9 18 -26 18 -39 0 -38 -26 -54 -85 -54 -58 0 -85 16 -85 52 0 12 7 30 17 40
22 24 109 25 135 1z m-294 -169 c14 -10 22 -26 22 -44 0 -37 -32 -60 -85 -60
-53 0 -85 23 -85 60 0 37 32 60 85 60 22 0 51 -7 63 -16z m290 0 c14 -10 22
-26 22 -44 0 -37 -32 -60 -85 -60 -53 0 -85 23 -85 60 0 37 32 60 85 60 22 0
51 -7 63 -16z m-284 -180 c9 -8 16 -26 16 -39 0 -38 -26 -55 -82 -55 -58 0
-88 19 -88 56 0 38 26 54 85 54 35 0 59 -5 69 -16z m290 0 c9 -8 16 -26 16
-39 0 -38 -26 -55 -82 -55 -58 0 -88 19 -88 56 0 38 26 54 85 54 35 0 59 -5
69 -16z m-290 -173 c24 -27 17 -72 -14 -89 -34 -17 -110 -9 -127 14 -18 24
-16 54 4 76 23 26 113 25 137 -1z m290 0 c24 -27 17 -72 -14 -89 -34 -17 -110
-9 -127 14 -18 24 -16 54 4 76 23 26 113 25 137 -1z"/>
<path d="M940 1900 l0 -30 70 0 c57 0 74 -4 90 -20 25 -25 25 -42 3 -69 -15
-17 -31 -21 -88 -23 -68 -3 -70 -4 -73 -30 -3 -27 -3 -27 69 -30 65 -3 74 -6
92 -30 l21 -28 -21 -27 c-18 -25 -27 -28 -92 -31 -72 -3 -72 -3 -69 -30 3 -26
5 -27 78 -32 67 -5 76 -7 89 -31 13 -24 13 -29 -2 -53 -16 -24 -23 -26 -92
-26 l-75 0 0 -30 0 -30 68 0 c72 0 96 -10 107 -47 4 -17 -1 -29 -19 -48 -22
-22 -34 -25 -91 -25 l-65 0 0 -55 0 -55 115 0 115 0 0 405 0 405 -115 0 -115
0 0 -30z"/>
<path d="M1990 1525 l0 -405 115 0 115 0 0 55 0 55 -57 0 c-76 0 -107 16 -111
56 -5 49 18 64 99 64 l69 0 0 30 0 30 -73 0 c-82 0 -97 9 -97 55 0 46 15 55
97 55 l73 0 0 30 0 30 -68 0 c-76 0 -102 16 -102 62 0 42 28 58 103 58 l67 0
0 30 0 30 -73 0 c-82 0 -97 9 -97 57 0 42 21 53 104 53 l66 0 0 30 0 30 -115
0 -115 0 0 -405z"/>
<path d="M321 1673 c-21 -25 -21 -34 -19 -377 l3 -351 58 -3 57 -3 0 321 0
320 230 0 230 0 0 60 0 60 -269 0 -270 0 -20 -27z"/>
<path d="M2280 1640 l0 -60 230 0 230 0 0 -320 0 -321 58 3 57 3 3 340 c1 187
0 350 -3 362 -13 52 -16 53 -306 53 l-269 0 0 -60z"/>
<path d="M1520 1235 l0 -115 60 0 60 0 0 115 0 115 -60 0 -60 0 0 -115z"/>
<path d="M287 822 l-178 -107 186 -3 c102 -1 268 -1 368 0 l181 3 -180 108
c-99 59 -184 107 -189 106 -6 0 -90 -49 -188 -107z"/>
<path d="M2495 823 l-179 -108 181 -3 c100 -1 266 -1 368 0 l187 3 -178 105
c-98 58 -182 106 -188 108 -6 1 -92 -46 -191 -105z"/>
<path d="M1462 826 l-43 -34 23 -22 c34 -32 72 -50 123 -56 36 -5 55 -2 99 20
79 39 85 50 46 83 -50 43 -58 46 -82 29 -28 -20 -68 -20 -94 -1 -25 19 -23 20
-72 -19z"/>
<path d="M1347 711 l-47 -39 40 -36 c22 -19 63 -48 92 -63 47 -25 63 -28 148
-28 85 0 101 3 148 28 29 15 70 44 92 63 l39 36 -45 39 -46 40 -26 -27 c-87
-86 -221 -90 -311 -9 l-37 34 -47 -38z"/>
<path d="M1259 616 c-8 -6 -28 -22 -45 -34 l-29 -24 60 -55 c110 -104 258
-152 403 -132 92 12 212 73 276 138 28 28 48 52 45 54 -2 1 -21 17 -42 35
l-39 33 -38 -35 c-165 -149 -369 -152 -530 -8 -37 32 -49 38 -61 28z"/>
<path d="M130 570 l0 -30 93 0 c135 0 137 -2 137 -144 0 -145 -1 -146 -133
-146 l-97 0 0 -60 0 -60 145 0 145 0 0 128 c0 169 -8 162 178 162 178 0 172 6
172 -167 l0 -123 30 0 30 0 -2 233 -3 232 -347 3 -348 2 0 -30z"/>
<path d="M2340 365 l0 -235 25 0 25 0 0 123 c0 173 -6 167 174 167 184 0 176
7 176 -163 l0 -127 145 0 145 0 0 60 0 60 -98 0 c-131 0 -132 1 -132 143 0
143 4 147 135 147 l95 0 0 30 0 30 -345 0 -345 0 0 -235z"/>
<path d="M130 390 l0 -31 58 3 c54 3 57 4 60 31 3 27 3 27 -57 27 l-61 0 0
-30z"/>
<path d="M2912 393 c3 -27 6 -28 61 -31 l57 -3 0 31 0 30 -61 0 c-60 0 -60 0
-57 -27z"/>
<path d="M540 220 l0 -90 55 0 55 0 0 90 0 90 -55 0 -55 0 0 -90z"/>
<path d="M2510 220 l0 -90 55 0 55 0 0 90 0 90 -55 0 -55 0 0 -90z"/>
</g>
</svg>
